<svg width="65" height="78" viewBox="0 0 65 78" fill="none" xmlns="http://www.w3.org/2000/svg">
<g filter="url(#filter0_d_2_201)">
<path fill-rule="evenodd" clip-rule="evenodd" d="M6.27388 0.178748C5.58116 0.397092 4.39967 1.6205 4.18726 2.33947C3.93758 3.18462 3.93758 66.8097 4.18726 67.6548C4.41633 68.4301 5.58554 69.5993 6.36082 69.8284C6.8057 69.9598 11.9446 70 28.3062 70H49.6705L55.0711 64.5993L60.4719 59.1987V31.0596C60.4719 9.72903 60.4312 2.78491 60.304 2.36036C60.2117 2.05239 59.8617 1.49502 59.5261 1.12171C58.4209 -0.107626 60.8774 -0.00755764 32.1833 0.00867352C14.0846 0.0189768 6.6256 0.0679526 6.27388 0.178748ZM57.8671 2.59903L58.2136 2.94539V30.2626V57.5796H54.5956C52.1676 57.5796 50.7865 57.6361 50.3967 57.7513C49.6214 57.9803 48.4522 59.1495 48.2231 59.9248C48.1079 60.3147 48.0515 61.6957 48.0515 64.1238V67.7418H27.5092H6.96674L6.62038 67.3953L6.27388 67.0489V34.9971V2.94539L6.62038 2.59903L6.96674 2.25253H32.2437H57.5207L57.8671 2.59903ZM24.975 4.70837C23.2559 5.14788 22.8881 5.40363 18.7648 9.02671C16.9794 10.5956 15.328 11.9994 15.0952 12.1463C14.8623 12.2934 14.4494 12.4145 14.1778 12.4155C13.5553 12.4179 12.3983 12.9542 11.8632 13.4882C11.6382 13.7129 11.3003 14.2296 11.1123 14.6366C10.7787 15.3591 10.7717 15.4489 10.8158 18.4474C10.8605 21.4938 10.8641 21.5241 11.2539 22.264C11.7754 23.2538 12.6045 24.0352 13.5481 24.4263C14.0495 24.6342 14.3189 24.8288 14.3189 24.9832C14.3189 25.1138 14.5419 25.6662 14.8143 26.2109C16.8896 30.3591 22.7546 30.3643 24.8281 26.2196C25.1029 25.6701 25.3279 25.1338 25.3279 25.0278C25.3279 24.868 26.318 24.835 31.1146 24.835C35.9113 24.835 36.9014 24.868 36.9014 25.0278C36.9014 25.1338 37.1244 25.6662 37.3968 26.2109C39.4721 30.3591 45.3371 30.3643 47.4106 26.2196C47.6854 25.6701 47.9103 25.1338 47.9103 25.0278C47.9103 24.8775 48.2259 24.835 49.3407 24.835C50.1274 24.835 51.0324 24.7578 51.3519 24.6634C52.1272 24.4343 53.2964 23.2651 53.5255 22.4898C53.6384 22.1075 53.6971 20.7981 53.6971 18.6594C53.6971 15.7729 53.6694 15.3763 53.4501 15.1099C53.2649 14.8849 52.2178 14.5288 49.2676 13.6875C47.103 13.0701 45.319 12.5472 45.3031 12.5252C45.2871 12.5031 44.3269 11.1524 43.1696 9.52367C42.0121 7.89476 40.8206 6.31653 40.5218 6.01646C40.223 5.7164 39.5561 5.27068 39.0398 5.02608L38.1011 4.58135L31.8909 4.55467C27.2366 4.53463 25.5039 4.57316 24.975 4.70837ZM29.9855 9.52127V12.2735H24.2391C19.357 12.2735 18.5238 12.2443 18.6993 12.0794C19.9042 10.9479 23.9132 7.55137 24.2526 7.37438C25.1709 6.89577 25.8316 6.7878 27.9037 6.77848L29.9855 6.76903V9.52127ZM38.1011 7.10452C38.968 7.5134 39.0486 7.60274 40.9181 10.227L42.4263 12.3441L38.3584 12.3871C36.1209 12.4107 33.8299 12.3894 33.267 12.3397L32.2437 12.2494V9.50927V6.76903L34.8196 6.77044C37.2305 6.77171 37.4405 6.79302 38.1011 7.10452ZM46.5862 15.262L48.5786 15.8335L48.3504 16.2765C47.9967 16.9626 48.0508 18.2913 48.4592 18.9523C48.9304 19.7147 49.6963 20.1782 50.6472 20.2763L51.4389 20.358V21.1209C51.4389 21.7428 51.3748 21.948 51.0924 22.2303C50.7706 22.5522 50.6454 22.5768 49.3281 22.5768C48.224 22.5768 47.9103 22.5341 47.9103 22.384C47.9103 22.278 47.6873 21.7456 47.4149 21.2009C46.8128 19.9976 45.9659 19.1822 44.6895 18.5776C43.8369 18.1736 43.6184 18.1308 42.4059 18.1308C41.1933 18.1308 40.9748 18.1736 40.1222 18.5776C38.8459 19.1822 37.9989 19.9976 37.3968 21.2009C37.1244 21.7456 36.9014 22.278 36.9014 22.384C36.9014 22.5437 35.9113 22.5768 31.1146 22.5768C26.318 22.5768 25.3279 22.5437 25.3279 22.384C25.3279 22.278 25.1049 21.7456 24.8325 21.2009C24.2303 19.9976 23.3834 19.1822 22.107 18.5776C21.2544 18.1736 21.0359 18.1308 19.8234 18.1308C18.6108 18.1308 18.3924 18.1736 17.5397 18.5776C17.0213 18.8231 16.3156 19.2835 15.9718 19.6004C15.3532 20.1706 14.46 21.628 14.46 22.0673C14.46 22.3683 14.2914 22.3539 13.8619 22.016C13.3274 21.5956 13.0486 20.877 13.0486 19.9194V19.069L13.8018 18.7241C15.1849 18.0909 16.1764 16.7306 16.385 15.1802L16.4782 14.4879L30.5358 14.5891L44.5935 14.6904L46.5862 15.262ZM14.1237 15.1197C14.0291 15.5927 13.4087 16.5077 13.1826 16.5077C13.0098 16.5077 13.0102 15.9214 13.1833 15.4662C13.2904 15.1845 13.8809 14.7083 14.1601 14.6785C14.1892 14.6754 14.1728 14.874 14.1237 15.1197ZM20.9525 16.9311V18.0603H22.6462H24.3399V16.9311V15.802H22.6462H20.9525V16.9311ZM34.502 16.9311V18.0603H36.1957H37.8894V16.9311V15.802H36.1957H34.502V16.9311ZM51.4389 17.4957C51.4389 18.0199 51.4106 18.0603 51.0437 18.0603C50.6018 18.0603 50.3097 17.8356 50.3097 17.4957C50.3097 17.1558 50.6018 16.9311 51.0437 16.9311C51.4106 16.9311 51.4389 16.9715 51.4389 17.4957ZM20.8656 20.4901C22.0785 20.8485 23.2107 22.4011 23.2107 23.7059C23.2107 25.4548 21.5722 27.0933 19.8234 27.0933C18.0745 27.0933 16.436 25.4548 16.436 23.7059C16.436 22.8188 16.7589 22.1031 17.4898 21.3707C18.4799 20.3785 19.5463 20.1003 20.8656 20.4901ZM43.448 20.4901C44.661 20.8485 45.7932 22.4011 45.7932 23.7059C45.7932 25.4548 44.1547 27.0933 42.4059 27.0933C40.657 27.0933 39.0185 25.4548 39.0185 23.7059C39.0185 22.8188 39.3414 22.1031 40.0722 21.3707C41.0623 20.3785 42.1288 20.1003 43.448 20.4901ZM18.6943 23.7059V24.835H19.8234H20.9525V23.7059V22.5768H19.8234H18.6943V23.7059ZM41.2767 23.7059V24.835H42.4059H43.535V23.7059V22.5768H42.4059H41.2767V23.7059ZM42.2647 32.386L40.7878 33.868H37.4267H34.0657L33.7194 34.2145L33.3729 34.5609V38.3845V42.2082L33.7194 42.5545L34.0657 42.901H37.8894H41.713L42.0594 42.5545L42.4059 42.2082V38.8472V35.486L43.8878 34.0092C44.7029 33.1969 45.3698 32.4652 45.3698 32.3832C45.3698 32.1963 44.0686 30.9041 43.8805 30.9041C43.8041 30.9041 43.077 31.571 42.2647 32.386ZM22.0816 36.1263V37.2554H26.5981H31.1146V36.1263V34.9971H26.5981H22.0816V36.1263ZM46.9224 36.1263V37.2554H51.4389H55.9554V36.1263V34.9971H51.4389H46.9224V36.1263ZM37.8487 36.8015C37.483 37.173 37.1906 37.5381 37.1989 37.613C37.2072 37.688 37.5587 38.0626 37.9797 38.4453L38.7452 39.1413L39.4464 38.4507L40.1476 37.76V39.2014V40.6428H37.8894H35.6311V38.3845V36.1263H37.0724H38.5139L37.8487 36.8015ZM19.8234 40.6428V41.7719H25.469H31.1146V40.6428V39.5136H25.469H19.8234V40.6428ZM44.6641 40.6428V41.7719H50.3097H55.9554V40.6428V39.5136H50.3097H44.6641V40.6428ZM17.424 43.6773L15.9471 45.1593H12.586H9.22499L8.87863 45.5058L8.53213 45.8521V49.6758V53.4994L8.87863 53.8458L9.22499 54.1923H13.0486H16.8723L17.2186 53.8458L17.5651 53.4994V50.1384V46.7773L19.0471 45.3004C19.8622 44.4881 20.5291 43.7565 20.5291 43.6745C20.5291 43.4876 19.2279 42.1953 19.0398 42.1953C18.9634 42.1953 18.2362 42.8622 17.424 43.6773ZM42.2647 43.6773L40.7878 45.1593H37.4267H34.0657L33.7194 45.5058L33.3729 45.8521V49.6758V53.4994L33.7194 53.8458L34.0657 54.1923H37.8894H41.713L42.0594 53.8458L42.4059 53.4994V50.1384V46.7773L43.8878 45.3004C44.7029 44.4881 45.3698 43.7565 45.3698 43.6745C45.3698 43.4876 44.0686 42.1953 43.8805 42.1953C43.8041 42.1953 43.077 42.8622 42.2647 43.6773ZM22.0816 47.4175V48.5466H26.5981H31.1146V47.4175V46.2884H26.5981H22.0816V47.4175ZM46.9224 47.4175V48.5466H51.4389H55.9554V47.4175V46.2884H51.4389H46.9224V47.4175ZM13.008 48.0927C12.6423 48.4642 12.3498 48.8293 12.3582 48.9043C12.3665 48.9792 12.7179 49.3538 13.139 49.7366L13.9045 50.4326L14.6057 49.742L15.3069 49.0512V50.4927V51.934H13.0486H10.7904V49.6758V47.4175H12.2317H13.6732L13.008 48.0927ZM37.8487 48.0927C37.483 48.4642 37.1906 48.8293 37.1989 48.9043C37.2072 48.9792 37.5587 49.3538 37.9797 49.7366L38.7452 50.4326L39.4464 49.742L40.1476 49.0512V50.4927V51.934H37.8894H35.6311V49.6758V47.4175H37.0724H38.5139L37.8487 48.0927ZM19.8234 51.934V53.0631H25.469H31.1146V51.934V50.8049H25.469H19.8234V51.934ZM44.6641 51.934V53.0631H50.3097H55.9554V51.934V50.8049H50.3097H44.6641V51.934ZM17.424 54.9685L15.9471 56.4505H12.586H9.22499L8.87863 56.797L8.53213 57.1434V60.967V64.7906L8.87863 65.137L9.22499 65.4835H13.0486H16.8723L17.2186 65.137L17.5651 64.7906V61.4297V58.0685L19.0471 56.5916C19.8622 55.7794 20.5291 55.0477 20.5291 54.9657C20.5291 54.7788 19.2279 53.4866 19.0398 53.4866C18.9634 53.4866 18.2362 54.1534 17.424 54.9685ZM22.0816 58.7088V59.8379H26.5981H31.1146V58.7088V57.5796H26.5981H22.0816V58.7088ZM13.008 59.384C12.6423 59.7555 12.3498 60.1206 12.3582 60.1955C12.3665 60.2705 12.7179 60.6451 13.139 61.0278L13.9045 61.7238L14.6057 61.0332L15.3069 60.3425V61.7839V63.2253H13.0486H10.7904V60.967V58.7088H12.2317H13.6732L13.008 59.384ZM56.5199 59.8744C56.5199 59.8945 55.1226 61.307 53.4148 63.0135L50.3097 66.1162V63.3235C50.3097 59.5751 50.0495 59.8379 53.7613 59.8379C55.2786 59.8379 56.5199 59.8543 56.5199 59.8744ZM19.8234 63.2253V64.3544H25.469H31.1146V63.2253V62.0961H25.469H19.8234V63.2253Z" fill="white"/>
<path fill-rule="evenodd" clip-rule="evenodd" d="M17.4238 32.3858L15.9469 33.8678H12.5858H9.22484L8.87848 34.2143L8.53198 34.5606V38.3843V42.2079L8.87848 42.5543L9.22484 42.9008H13.0485H16.8721L17.2185 42.5543L17.565 42.2079V38.8469V35.4858L19.047 34.0089C19.862 33.1966 20.5289 32.465 20.5289 32.383C20.5289 32.1961 19.2278 30.9038 19.0396 30.9038C18.9633 30.9038 18.2361 31.5707 17.4238 32.3858ZM13.0078 36.8012C12.6421 37.1727 12.3497 37.5378 12.358 37.6128C12.3663 37.6877 12.7178 38.0623 13.1388 38.4451L13.9044 39.1411L14.6055 38.4505L15.3067 37.7597V39.2012V40.6425H13.0485H10.7902V38.3843V36.126H12.2316H13.673L13.0078 36.8012Z" fill="#DB3138"/>
<path fill-rule="evenodd" clip-rule="evenodd" d="M17.4238 43.6829L15.9469 45.1649H12.5858H9.22484L8.87848 45.5114L8.53198 45.8577V49.6814V53.505L8.87848 53.8514L9.22484 54.1979H13.0485H16.8721L17.2185 53.8514L17.565 53.505V50.144V46.7829L19.047 45.306C19.862 44.4938 20.5289 43.7621 20.5289 43.6801C20.5289 43.4932 19.2278 42.2009 19.0396 42.2009C18.9633 42.2009 18.2361 42.8678 17.4238 43.6829ZM13.0078 48.0983C12.6421 48.4698 12.3497 48.835 12.358 48.9099C12.3663 48.9848 12.7178 49.3594 13.1388 49.7422L13.9044 50.4382L14.6055 49.7476L15.3067 49.0568V50.4983V51.9396H13.0485H10.7902V49.6814V47.4231H12.2316H13.673L13.0078 48.0983Z" fill="#DB3138"/>
<path fill-rule="evenodd" clip-rule="evenodd" d="M17.4241 54.9743L15.9472 56.4563H12.5861H9.22509L8.87873 56.8028L8.53223 57.1491V60.9728V64.7964L8.87873 65.1428L9.22509 65.4893H13.0487H16.8724L17.2187 65.1428L17.5652 64.7964V61.4354V58.0743L19.0472 56.5974C19.8623 55.7851 20.5292 55.0535 20.5292 54.9715C20.5292 54.7846 19.228 53.4923 19.0399 53.4923C18.9635 53.4923 18.2363 54.1592 17.4241 54.9743ZM13.008 59.3898C12.6423 59.7613 12.3499 60.1264 12.3582 60.2014C12.3665 60.2763 12.7179 60.6509 13.139 61.0337L13.9045 61.7296L14.6057 61.039L15.3069 60.3483V61.7898V63.2311H13.0486H10.7904V60.9728V58.7146H12.2317H13.6732L13.008 59.3898Z" fill="#DB3138"/>
<path fill-rule="evenodd" clip-rule="evenodd" d="M42.2363 43.6829L40.7594 45.1649H37.3983H34.0373L33.691 45.5114L33.3445 45.8577V49.6814V53.505L33.691 53.8514L34.0373 54.1979H37.861H41.6846L42.031 53.8514L42.3775 53.505V50.144V46.7829L43.8595 45.306C44.6745 44.4938 45.3414 43.7621 45.3414 43.6801C45.3414 43.4932 44.0403 42.2009 43.8521 42.2009C43.7758 42.2009 43.0486 42.8678 42.2363 43.6829ZM37.8203 48.0983C37.4546 48.4698 37.1622 48.835 37.1705 48.9099C37.1788 48.9848 37.5303 49.3594 37.9513 49.7422L38.7169 50.4382L39.418 49.7476L40.1192 49.0568V50.4983V51.9396H37.861H35.6027V49.6814V47.4231H37.0441H38.4855L37.8203 48.0983Z" fill="#DB3138"/>
<path fill-rule="evenodd" clip-rule="evenodd" d="M42.2363 32.3919L40.7594 33.8739H37.3983H34.0373L33.691 34.2204L33.3445 34.5667V38.3904V42.214L33.691 42.5604L34.0373 42.9069H37.861H41.6846L42.031 42.5604L42.3775 42.214V38.853V35.4919L43.8595 34.015C44.6745 33.2027 45.3414 32.4711 45.3414 32.3891C45.3414 32.2022 44.0403 30.9099 43.8521 30.9099C43.7758 30.9099 43.0486 31.5768 42.2363 32.3919ZM37.8203 36.8073C37.4546 37.1788 37.1622 37.5439 37.1705 37.6189C37.1788 37.6938 37.5303 38.0684 37.9513 38.4512L38.7169 39.1472L39.418 38.4566L40.1192 37.7658V39.2073V40.6486H37.861H35.6027V38.3904V36.1321H37.0441H38.4855L37.8203 36.8073Z" fill="#DB3138"/>
</g>
<defs>
<filter id="filter0_d_2_201" x="0" y="0" width="64.4719" height="78" filterUnits="userSpaceOnUse" color-interpolation-filters="sRGB">
<feFlood flood-opacity="0" result="BackgroundImageFix"/>
<feColorMatrix in="SourceAlpha" type="matrix" values="0 0 0 0 0 0 0 0 0 0 0 0 0 0 0 0 0 0 127 0" result="hardAlpha"/>
<feOffset dy="4"/>
<feGaussianBlur stdDeviation="2"/>
<feComposite in2="hardAlpha" operator="out"/>
<feColorMatrix type="matrix" values="0 0 0 0 0 0 0 0 0 0 0 0 0 0 0 0 0 0 0.25 0"/>
<feBlend mode="normal" in2="BackgroundImageFix" result="effect1_dropShadow_2_201"/>
<feBlend mode="normal" in="SourceGraphic" in2="effect1_dropShadow_2_201" result="shape"/>
</filter>
</defs>
</svg>
