<svg width="70" height="45" viewBox="0 0 70 45" fill="none" xmlns="http://www.w3.org/2000/svg">
<path fill-rule="evenodd" clip-rule="evenodd" d="M51.7938 1.97305C48.5475 3.59615 47.5886 4.02253 46.8255 4.18244L45.8799 4.38069L40.7897 3.888C35.08 3.33543 34.2524 3.32855 31.8589 3.81368C31.1034 3.96682 29.9927 4.28731 29.3908 4.52582C28.7889 4.76433 25.4504 6.42261 21.9718 8.2108C15.4775 11.5495 15.1352 11.7606 14.885 12.583C14.8327 12.7553 14.5568 13.0158 14.2425 13.1898C13.9395 13.3575 13.4993 13.7269 13.2642 14.0106C12.4967 14.9363 12.4194 15.3532 12.4194 18.5605V21.472H6.20968H0V22.3741V23.2763H18.1468C28.1276 23.2763 36.2692 23.3143 36.2393 23.3609C35.2089 24.9639 34.6016 26.2816 34.1992 27.7871C33.8453 29.1111 33.8508 31.9721 34.2098 33.3083C35.8159 39.286 41.5808 43.7572 48.9613 44.7492C58.937 46.0902 68.3048 40.5898 69.7978 32.5152C70.3664 29.4404 69.6829 26.5519 67.6317 23.3609C67.6018 23.3143 68.1224 23.2763 68.7887 23.2763H70V22.3741V21.472H68.0288H66.0578L64.8592 20.4785C61.2511 17.4877 56.2231 15.8824 51.1593 16.1045C50.2278 16.1453 49.2594 16.2083 49.0071 16.2444C48.5745 16.3064 48.5484 16.2912 48.5484 15.9769C48.5484 15.6823 48.6178 15.6272 49.1482 15.5019C50.1941 15.2547 51.8292 14.5057 52.9234 13.7726C53.5055 13.3825 55.8553 12.1314 58.1452 10.9922C60.435 9.85295 62.3864 8.8643 62.4816 8.79517C62.6163 8.69774 62.5274 8.50231 62.0845 7.92121L61.5139 7.17275L59.8648 7.99316C58.9578 8.44446 56.9773 9.42928 55.4637 10.1817C53.9501 10.9341 52.3685 11.7879 51.9489 12.0789C50.6964 12.9478 49.4554 13.5357 48.1538 13.8766C47.0279 14.1715 46.7606 14.1974 44.9496 14.188C43.2929 14.1794 42.6204 14.1184 40.7863 13.8098C38.9345 13.4983 38.1655 13.4294 35.7762 13.3607C34.2238 13.3159 32.786 13.2231 32.5812 13.1543C31.8698 12.9156 30.7661 11.9767 30.7661 11.6102C30.7661 11.5761 32.4808 11.5482 34.5766 11.5482H38.3871V10.6461V9.74391H33.7243H29.0614L24.1122 11.9378C18.8992 14.2487 18.2566 14.4616 17.509 14.1264C17.0076 13.9015 16.8158 13.4185 17.0813 13.0492C17.278 12.7756 28.7439 6.78844 30.2016 6.1982C31.5627 5.64709 33.6566 5.23593 35.1318 5.22996C35.5638 5.22827 38.1218 5.44185 40.8161 5.70472C47.6016 6.36679 47.0708 6.46298 53.0786 3.48248C55.0502 2.50431 56.7418 1.64704 56.8377 1.57723C56.9738 1.47833 56.8929 1.29576 56.4688 0.744765C56.1701 0.356499 55.9011 0.0215727 55.8711 0.000371983C55.8411 -0.0208287 54.0063 0.866895 51.7938 1.97305ZM13.0544 1.75924C12.6759 1.93076 12.6131 2.01703 12.2686 2.83755C11.9134 3.68343 11.3401 4.18289 10.6145 4.27886C9.7331 4.39524 9.34613 4.56146 9.17141 4.89875C8.82875 5.55958 9.32425 6.04889 10.4818 6.1929C11.3091 6.29586 11.8718 6.77355 12.2683 7.70965C12.6284 8.55948 12.9476 8.84175 13.5484 8.84175C14.1444 8.84175 14.4951 8.54697 14.816 7.77664C14.9825 7.37676 15.2524 6.91384 15.4157 6.74795C15.7493 6.40919 16.461 6.13527 17.0079 6.13527C17.5143 6.13527 18.0645 5.66547 18.0645 5.23311C18.0645 4.76929 17.5157 4.33096 16.9349 4.33096C15.9493 4.33096 15.2854 3.81673 14.816 2.68959C14.4118 1.7191 13.8258 1.40966 13.0544 1.75924ZM13.8256 5.05911C13.9602 5.18868 13.9536 5.27213 13.7942 5.45392C13.593 5.68352 13.5913 5.68352 13.3391 5.4608C13.1321 5.27788 13.1184 5.20628 13.2639 5.0661C13.4861 4.85207 13.6089 4.85049 13.8256 5.05911ZM5.12002 10.7822C4.93867 10.8522 4.70778 11.1221 4.57173 11.423C3.90561 12.8971 3.5995 13.1728 2.4356 13.3464C1.75748 13.4477 1.12903 13.8632 1.12903 14.2102C1.12903 14.5658 1.5623 15.0416 1.94306 15.104C3.49788 15.3586 3.88034 15.6164 4.36413 16.7356C4.71653 17.5507 5.06724 17.8633 5.62935 17.8633C6.24129 17.8633 6.58946 17.5743 6.91278 16.7982C7.07931 16.3983 7.34915 15.9354 7.51244 15.7695C7.84607 15.4308 8.55778 15.1569 9.10466 15.1569C9.61103 15.1569 10.1613 14.6871 10.1613 14.2547C10.1613 13.7909 9.61244 13.3525 9.03169 13.3525C8.04605 13.3525 7.38218 12.8383 6.91278 11.7112C6.5052 10.7324 5.96919 10.4547 5.12002 10.7822ZM28.6169 12.3165C28.6527 12.4025 28.5043 12.4491 28.2022 12.4468C27.7561 12.4434 27.7461 12.4346 28.0085 12.2762C28.3106 12.0936 28.5299 12.1081 28.6169 12.3165ZM5.92234 14.0807C6.05698 14.2103 6.05034 14.2937 5.89101 14.4755C5.68976 14.7051 5.68806 14.7051 5.43587 14.4824C5.22883 14.2995 5.21514 14.2279 5.36065 14.0877C5.58292 13.8736 5.70571 13.8721 5.92234 14.0807ZM31.429 14.6714L32.4841 15.0881L35.4708 15.1702C38.0228 15.2404 38.7556 15.3032 40.504 15.6016C41.8834 15.837 43.1599 15.9741 44.4204 16.0222L46.2903 16.0937V16.4589C46.2903 16.7633 46.2258 16.8368 45.9022 16.901C45.1071 17.0586 42.6515 18.089 41.4784 18.7573C40.8111 19.1374 39.7076 19.9037 39.0261 20.4602L37.787 21.472H26.2322H14.6774V18.5907C14.6774 16.1526 14.7127 15.6541 14.907 15.3486C15.2202 14.8564 15.2202 14.8564 15.4634 15.1337C15.8393 15.5627 16.8707 15.9629 17.7673 16.0279C18.8962 16.1096 20.134 15.7917 22.0161 14.9364L23.498 14.263L26.936 14.2589L30.3739 14.2547L31.429 14.6714ZM35 16.9612V17.8633H36.129H37.2581V16.9612V16.059H36.129H35V16.9612ZM54.4085 18.0292C60.9931 18.8827 66.0574 22.8149 67.4838 28.1818C67.716 29.0552 67.716 31.9319 67.4838 32.8053C66.1013 38.0074 61.3389 41.8128 54.8286 42.9175C53.7356 43.103 50.1354 43.103 49.0423 42.9175C44.1371 42.0851 40.2017 39.7576 37.995 36.3834C35.5515 32.6474 35.5154 28.5254 37.8927 24.743C40.9194 19.9276 47.7212 17.1626 54.4085 18.0292ZM20.3226 19.6676V20.5698H21.4516H22.5806V19.6676V18.7655H21.4516H20.3226V19.6676Z" fill="white"/>
<path fill-rule="evenodd" clip-rule="evenodd" d="M41.0657 24.4613C41.6685 23.4889 42.8221 22.7351 44.1034 22.4764C44.3363 22.4293 46.4638 22.4 48.8312 22.4112C52.9899 22.4308 53.1573 22.4401 53.7751 22.686C54.7807 23.0863 55.3748 23.5415 55.8977 24.3119L56.3816 25.0252L56.4283 27.513L56.4751 30.0008L56.9793 29.6316C57.8616 28.9859 58.6355 28.7536 59.9099 28.7517C61.2229 28.7496 61.9997 28.9804 62.922 29.6462C64.1648 30.5434 64.5313 31.7404 64.2206 33.8878C63.8252 36.6204 63.2652 37.5594 61.6161 38.2547L60.8978 38.5576H52.43H43.9623L43.0696 38.1709C42.1054 37.7531 41.5358 37.2783 41.0348 36.4748C40.7174 35.9655 40.7163 35.9454 40.7163 30.4945V25.0252L41.0657 24.4613ZM61.8836 34.2726C62.3036 32.0404 62.0665 31.1724 60.9153 30.7271C60.2693 30.4772 59.6944 30.4428 59.1366 30.6206C58.5859 30.7962 58.288 31.0638 57.8332 31.7916C57.0945 32.9736 56.7606 33.1746 54.1744 33.9956C53.3702 34.2508 52.5703 34.5653 52.3969 34.6943C51.6928 35.218 51.9031 36.2771 52.7834 36.6409C53.1547 36.7944 53.7494 36.8156 56.8725 36.787L60.5269 36.7535L60.9561 36.4248C61.4801 36.0234 61.6116 35.7183 61.8836 34.2726ZM53.1519 24.4677C53.3661 24.5956 53.6722 24.8402 53.8323 25.0113C54.1086 25.3068 54.1254 25.4923 54.1645 28.683L54.2056 32.0436L53.0355 32.4169C51.4688 32.917 50.9078 33.2115 50.4003 33.8008C49.7089 34.6039 49.4971 35.7917 49.8977 36.6183C49.9915 36.8118 49.8492 36.8206 47.1656 36.7874C44.0646 36.7492 43.9691 36.7294 43.2651 35.9763C42.9833 35.6749 42.9728 35.5105 42.932 30.7959C42.909 28.1178 42.9274 25.7633 42.973 25.5635C43.0761 25.1119 43.6685 24.5361 44.2372 24.3348C44.5722 24.2162 45.5645 24.1883 48.7151 24.2088C52.5552 24.2338 52.7824 24.2471 53.1519 24.4677Z" fill="#DB3138"/>
</svg>
